Coordinates
nRows=10
nColumns=24

# SIMM Motion File Header:
name Coordinates
datacolumns 24
datarows 10
otherdata 1
range 0.79999999999999927000 0.81924999999999937000
endheader
time	pelvis_tx	pelvis_ty	pelvis_tz	pelvis_tilt	pelvis_list	pelvis_rotation	hip_flexion_r	hip_adduction_r	hip_rotation_r	knee_angle_r	ankle_angle_r	subtalar_angle_r	mtp_angle_r	hip_flexion_l	hip_adduction_l	hip_rotation_l	knee_angle_l	ankle_angle_l	subtalar_angle_l	mtp_angle_l	lumbar_extension	lumbar_bending	lumbar_rotation
      0.79999999999999927000	      0.61231761558583142000	      1.00799321299319880000	      0.01554784505809839000	      4.57909802165700430000	     -0.24220106416096079000	      3.54509207628799540000	     16.81528865077327900000	     -0.93296083920086315000	     -7.00822165992595900000	    -23.58586067603493300000	      2.20518787012779030000	      0.15130208892009836000	      3.20330583751204360000	     -6.85047109167472000000	     -2.65738928324636260000	     -0.09393863378783608200	    -50.85518117429872100000	     -4.47880426055444490000	      0.17880163858538350000	      2.27571657111787400000	    -15.25757957598549200000	      3.59105240692374930000	     -6.09993961969786810000
      0.80100000000000027000	      0.61235557835659782000	      1.00813627046525610000	      0.01577601138428329600	      4.58202179972513690000	     -0.27947295732085503000	      3.54580000281159700000	     16.73039717858646800000	     -0.87502685341763398000	     -7.01869816886591560000	    -23.57239416404829800000	      2.26768170880268770000	      0.15607190884111719000	      3.34880262190255000000	     -6.65576387553402960000	     -2.74731582264031360000	     -0.18385743470646776000	    -51.19664791321822200000	     -4.61050558712172530000	      0.18000228134762061000	      2.22543740453322950000	    -15.25356310142058700000	      3.63312408118114850000	     -6.06979879111283530000
      0.80349999999999999000	      0.61244351594092772000	      1.00849727624006500000	      0.01634735071681954100	      4.59001144489060930000	     -0.37155494703132436000	      3.54719474880926590000	     16.51539509312406700000	     -0.73079102867384171000	     -7.04485501358578770000	    -23.53501109566030900000	      2.44103650757825450000	      0.17958295104186534000	      3.68513804824671400000	     -6.17075909929115700000	     -2.97159674326425800000	     -0.40675494926721661000	    -52.03901397795046800000	     -4.92876329789986830000	      0.17976392154356319000	      2.13553752168969260000	    -15.24466060888150800000	      3.73599041313334100000	     -5.99353744326226060000
      0.80599999999999972000	      0.61252178008490543000	      1.00886382642345200000	      0.01692017998208382800	      4.59913548410882100000	     -0.46244449642573654000	      3.54788889738792170000	     16.29615834122893100000	     -0.58673262645837321000	     -7.07053044604318260000	    -23.49070468259727900000	      2.62036415495404020000	      0.20759925402994645000	      3.99726606208659470000	     -5.68884641715430030000	     -3.19534488712702870000	     -0.62689524850040168000	    -52.86465838617527200000	     -5.22744893129997570000	      0.17647522292892390000	      2.08086267674583110000	    -15.23756027855300700000	      3.83597935636201950000	     -5.91573346317848970000
      0.80849999999999944000	      0.61259067505997178000	      1.00923643925971840000	      0.01749450065509470000	      4.60934744859244990000	     -0.55260095999715342000	      3.54784204631241050000	     16.07260319284286300000	     -0.44208407442497077000	     -7.09538909052226960000	    -23.43747595567219100000	      2.78317415861808510000	      0.22539517534271894000	      4.30464205575286220000	     -5.21034839409222710000	     -3.41884672077473260000	     -0.84397046978973511000	    -53.67305091334148400000	     -5.50263588041316610000	      0.17262124328999529000	      2.04454113043170560000	    -15.23218997256752700000	      3.93362996317926190000	     -5.83626171377846960000
      0.81001562500000035000	      0.61262802050416743000	      1.00946527812670970000	      0.01784328671526722400	      4.61595485837431060000	     -0.60697248781758528000	      3.54749134982649260000	     15.93507345473807200000	     -0.35398514430289335000	     -7.10999874013968030000	    -23.40039095625481000000	      2.86872155331749750000	      0.22785349335173902000	      4.49134873666892890000	     -4.92191457640320970000	     -3.55419950688765950000	     -0.97386807605807901000	    -54.15453502779274700000	     -5.65744967296673630000	      0.17073980070393197000	      2.02634710665998610000	    -15.22963736857815900000	      3.99179021367277500000	     -5.78731048977576630000
      0.81175000000000019000	      0.61266680336784851000	      1.00972977701879630000	      0.01824280798426437800	      4.62380694416569240000	     -0.66889935248019383000	      3.54683470860850920000	     15.77597138597725600000	     -0.25284662404659425000	     -7.12630313558410130000	    -23.35344867430124800000	      2.95331492967941680000	      0.22251968431127203000	      4.71310098326324050000	     -4.59338270492220070000	     -3.70882543021732090000	     -1.12073731856452060000	    -54.69741856590841400000	     -5.82170310382103650000	      0.17004227729766386000	      1.98573300791837750000	    -15.22724924392933800000	      4.05737082655049350000	     -5.73064864312784560000
      0.81424999999999992000	      0.61271568574171320000	      1.01011596384685930000	      0.01881912976399421200	      4.63573115593920180000	     -0.75736277624650905000	      3.54539293175582060000	     15.54346478423880000000	     -0.10683145351745225000	     -7.14896196326827930000	    -23.27799000014760000000	      3.05635320206310150000	      0.20414899229769101000	      5.04878296630207140000	     -4.12310118481185570000	     -3.93072703929901700000	     -1.32884649071910980000	    -55.46449312967150300000	     -6.02763948699197540000	      0.17415519711165528000	      1.85599519228726280000	    -15.22485486372099200000	      4.14983047873285750000	     -5.64784502974433080000
      0.81674999999999964000	      0.61275659879879063000	      1.01050785052305600000	      0.01939523626927569900	      4.64829640494682740000	     -0.84393779281362102000	      3.54335903143187190000	     15.30760118514156100000	      0.03814730936856751400	     -7.17050765918805230000	    -23.19506900540492100000	      3.15351341942219630000	      0.18458864133419570000	      5.37346444407027500000	     -3.65663446894449870000	     -4.14997743657140110000	     -1.53221617493116090000	    -56.21189683395110800000	     -6.21871137853014130000	      0.17233298093451030000	      1.69055328583733290000	    -15.22364211573235700000	      4.23887038851479670000	     -5.56399866983618720000
      0.81924999999999937000	      0.61278987841335297000	      1.01090473134100640000	      0.01997034203386356000	      4.66114884754323810000	     -0.92777609098920866000	      3.54071102253214360000	     15.06914814161742900000	      0.18085730850144485000	     -7.19088173414091610000	    -23.10658473625992200000	      3.26047994762608480000	      0.17451027227370866000	      5.65855657642482870000	     -3.19370673464925450000	     -4.36512432380116520000	     -1.73019190475631520000	    -56.93869134775349000000	     -6.40795354112358950000	      0.15848913041368964000	      1.53034258569805610000	    -15.22322862794572800000	      4.32361912432264630000	     -5.47938531067462890000
